# xmcd CD database file
# Copyright (C) 1997 Ti Kan
# 
# Track frame offsets:
#     182
#     15430
#     30315
#     45547
#     58747
#     71220
#     82327
#     101157
#     118015
#     131507
# 
# Disc length: 1985 seconds
# 
# Revision: 1
# Processed by: cddbd v1.4b41PL1 Copyright (c) Steve Scherf et al.
# Submitted via: DiscPlay 4.0.3
# 
DISCID=8707bf0a
DTITLE=David Lee Murphy - Out With A Bang
DYEAR=1900
DGENRE=
TTITLE0=Can't Turn It Off
TTITLE1=Party Crowd
TTITLE2=Mama 'N Them
TTITLE3=High Weeds And Rust
TTITLE4=Fish Ain't Bitin'
TTITLE5=Out With A Bang
TTITLE6=Greatest Show On Earth
TTITLE7=Dust On The Bottle
TTITLE8=Just Once
TTITLE9=Why Can't People Just Get Along
EXTD=
EXTT0=
EXTT1=
EXTT2=
EXTT3=
EXTT4=
EXTT5=
EXTT6=
EXTT7=
EXTT8=
EXTT9=
PLAYORDER=
